<?xml version="1.0" encoding="utf-8"?>
<!-- Generator: Adobe Illustrator 27.5.0, SVG Export Plug-In . SVG Version: 6.00 Build 0)  -->
<svg version="1.1" xmlns="http://www.w3.org/2000/svg" xmlns:xlink="http://www.w3.org/1999/xlink" x="0px" y="0px"
	 viewBox="0 0 750 500" style="enable-background:new 0 0 750 500;" xml:space="preserve">
<g id="BACKGROUND">
	<g>
		<path style="fill:#94DB79;" d="M520.145,254.18c-2.029-17.298,10.98-30.103,14.383-34.717c5.83-7.904,12.864-6.249,16.035-13.172
			c4.918-10.737-9.762-19.605-6.333-32.88c2.904-11.24,14.405-8.659,21.405-23.127c5.417-11.195,0.602-17.018,7.726-29.587
			c2.676-4.721,6.769-11.942,13.426-12.843c9.409-1.273,21.203,10.454,21.227,21.177c0.028,12.576-16.15,15.309-16.947,28.801
			c-0.763,12.92,13.683,17.02,12.285,28.777c-1.422,11.96-17.012,13.095-23.128,26.775c-6.103,13.652,7.681,21.571,6.839,39.365
			c-1.135,23.991-26.165,48.213-39.695,44.38C536.516,294.054,523.107,279.425,520.145,254.18z"/>
		<path style="fill:#699C56;" d="M545.828,287.509c-0.099,0-0.197-0.048-0.257-0.137c-4.536-6.726-9.77-17.422-8.949-30.184
			c0.788-12.259,6.917-21.589,11.841-29.085c4.747-7.227,8.462-10.732,11.448-13.549c3.23-3.048,5.365-5.061,6.658-9.965
			c1.681-6.366,0.14-10.928-1.349-15.341c-1.527-4.525-3.106-9.204-0.98-15.613c1.632-4.923,4.274-7.379,7.07-9.977
			c2.629-2.444,5.349-4.972,7.77-9.822c3.765-7.544,4.659-16.534,2.657-26.721c-0.033-0.168,0.076-0.331,0.245-0.364
			c0.165-0.038,0.331,0.076,0.363,0.244c2.03,10.324,1.118,19.448-2.71,27.118c-2.47,4.95-5.356,7.632-7.903,9.999
			c-2.854,2.654-5.32,4.946-6.903,9.718c-2.061,6.213-0.584,10.588,0.98,15.219c1.518,4.499,3.089,9.152,1.361,15.698
			c-1.341,5.074-3.644,7.248-6.834,10.257c-2.962,2.794-6.647,6.271-11.354,13.437c-5.138,7.824-10.963,16.69-11.742,28.786
			c-0.809,12.587,4.363,23.151,8.845,29.797c0.096,0.142,0.058,0.334-0.084,0.43C545.947,287.492,545.887,287.509,545.828,287.509z"
			/>
	</g>
	<g>
		<path style="fill:#94DB79;" d="M531.711,254.065c9.387-12.005,24.983-11.79,29.836-12.518c8.316-1.247,11.493,4.191,17.622,1.885
			c9.508-3.577,6.193-18.287,16.369-24.372c8.615-5.152,13.886,3.663,26.92-0.923c10.085-3.548,10.783-10.181,22.727-13.51
			c4.487-1.251,11.349-3.164,15.866,0.453c6.386,5.112,6.229,19.785-0.325,26.453c-7.687,7.82-19-0.632-27.74,7.24
			c-8.369,7.538-2.274,19.142-10.308,25.559c-8.173,6.529-18.157-2.546-30.181,2.106c-11.999,4.642-8.638,18.201-20.039,28.713
			c-15.372,14.173-45.123,13.502-50.836,2.637C517.039,289.072,518.011,271.586,531.711,254.065z"/>
		<path style="fill:#699C56;" d="M528.08,295.23c-0.014,0-0.029-0.001-0.045-0.004c-0.169-0.024-0.287-0.182-0.261-0.351
			c1.051-7.267,4.05-17.621,12.363-25.675c7.988-7.737,17.768-10.261,25.628-12.29c7.576-1.955,12.197-2.045,15.91-2.116
			c4.012-0.077,6.662-0.129,10.503-2.621c4.988-3.238,6.728-7.226,8.412-11.084c1.729-3.964,3.518-8.062,8.846-11.067
			c4.093-2.308,7.358-2.347,10.815-2.388c3.244-0.038,6.6-0.078,11.164-1.853c7.101-2.761,13.161-8.235,18.011-16.27
			c0.089-0.146,0.281-0.193,0.425-0.105c0.147,0.089,0.194,0.279,0.105,0.426c-4.923,8.154-11.086,13.715-18.316,16.527
			c-4.67,1.816-8.236,1.858-11.382,1.895c-3.522,0.042-6.563,0.077-10.518,2.308c-5.148,2.903-6.817,6.727-8.584,10.775
			c-1.72,3.941-3.497,8.017-8.643,11.355c-3.989,2.589-6.858,2.644-10.828,2.721c-3.68,0.071-8.262,0.159-15.767,2.097
			c-8.194,2.114-17.481,4.512-25.351,12.135c-8.188,7.932-11.144,18.146-12.182,25.319
			C528.365,295.118,528.232,295.23,528.08,295.23z"/>
	</g>
	<g>
		<path style="fill:#94DB79;" d="M220.572,347.333c-5.388-16.43-22.113-22.213-27.011-24.861c-8.393-4.537-13.88,0.041-19.532-4.783
			c-8.766-7.482,0.442-21.902-8.07-32.318c-7.207-8.819-16.23-1.445-28.371-11.364c-9.393-7.674-7.582-15.021-19.043-23.179
			c-4.305-3.064-10.89-7.751-17.105-5.634c-8.785,2.993-14.276,18.711-9.852,28.353c5.187,11.308,20.519,6.651,26.81,18.421
			c6.025,11.27-4.954,21.303,1.145,31.248c6.205,10.118,20.357,4.284,31.394,13.884c11.015,9.579,2.2,22.752,10.313,38.365
			c10.939,21.051,42.945,31.805,53.23,22.414C222.731,390.345,228.436,371.311,220.572,347.333z"/>
		<path style="fill:#699C56;" d="M191.333,368.439c-0.02,0-0.04-0.001-0.059-0.006c-0.168-0.033-0.278-0.195-0.246-0.363
			c1.264-6.514,1.784-16.237-2.906-25.564c-4.508-8.961-11.819-13.833-18.269-18.132c-5.91-3.938-9.846-5.395-13.008-6.565
			c-3.417-1.266-5.885-2.179-8.561-5.628c-3.45-4.447-3.761-8.513-4.062-12.446c-0.308-4.031-0.598-7.839-4.173-11.897
			c-2.746-3.117-5.364-4.064-8.395-5.161c-2.713-0.982-5.789-2.094-9.286-5.076c-5.414-4.617-9.073-11.291-10.876-19.837
			c-0.035-0.168,0.072-0.332,0.239-0.367c0.17-0.034,0.332,0.072,0.368,0.239c1.774,8.409,5.364,14.967,10.671,19.493
			c3.411,2.909,6.301,3.954,9.095,4.966c2.982,1.078,5.799,2.098,8.65,5.335c3.711,4.213,4.024,8.304,4.326,12.259
			c0.293,3.841,0.596,7.813,3.933,12.113c2.567,3.31,4.843,4.151,8.286,5.425c3.193,1.182,7.166,2.653,13.135,6.63
			c6.193,4.127,13.899,9.263,18.48,18.371c4.77,9.482,4.243,19.352,2.962,25.961C191.608,368.336,191.479,368.439,191.333,368.439z"
			/>
	</g>
</g>
<g id="OBJECTS">
	<g>
		<path style="fill:#808080;" d="M373.308,411.508h-13.866c-2.188,0-3.962-1.773-3.962-3.962l0,0c0-2.188,1.774-3.961,3.962-3.961
			h13.866c2.188,0,3.961,1.774,3.961,3.961l0,0C377.269,409.734,375.496,411.508,373.308,411.508z"/>
	</g>
	<g>
		<g>
			<path style="fill:#D3E1ED;" d="M558.123,396.45H172.69c-3.058,0-5.536-2.479-5.536-5.536V138.4c0-3.058,2.479-5.536,5.536-5.536
				h385.434c3.058,0,5.536,2.479,5.536,5.536v252.513C563.66,393.971,561.181,396.45,558.123,396.45z"/>
		</g>
		<rect x="187.626" y="153.125" style="fill:#304C65;" width="355.954" height="207.265"/>
		<g>
			<rect x="187.151" y="153.139" style="fill:#89AAC7;" width="356.429" height="19.645"/>
		</g>
		<g>
			<g>
				<path style="fill:#D3E1ED;" d="M516.549,162.962c0,1.674-1.358,3.032-3.032,3.032c-1.675,0-3.032-1.357-3.032-3.032
					c0-1.675,1.357-3.032,3.032-3.032C515.191,159.93,516.549,161.287,516.549,162.962z"/>
			</g>
			<g>
				<path style="fill:#D3E1ED;" d="M526.782,162.962c0,1.674-1.358,3.032-3.032,3.032c-1.675,0-3.032-1.357-3.032-3.032
					c0-1.675,1.357-3.032,3.032-3.032C525.425,159.93,526.782,161.287,526.782,162.962z"/>
			</g>
			<g>
				<path style="fill:#D3E1ED;" d="M537.016,162.962c0,1.674-1.358,3.032-3.032,3.032c-1.674,0-3.032-1.357-3.032-3.032
					c0-1.675,1.358-3.032,3.032-3.032C535.659,159.93,537.016,161.287,537.016,162.962z"/>
			</g>
		</g>
		<g>
			<path style="fill:#89AAC7;" d="M573.346,414.127H157.103c-12.612,0-22.836-10.224-22.836-22.836l0,0h461.915l0,0
				C596.182,403.903,585.958,414.127,573.346,414.127z"/>
		</g>
		<g>
			<path style="fill:#304C65;" d="M334.255,392.979c0,4.365,5.255,7.903,11.737,7.903h41.081c6.483,0,11.738-3.538,11.738-7.903
				c0-0.58-0.106-1.143-0.282-1.688h-63.993C334.36,391.836,334.255,392.399,334.255,392.979z"/>
		</g>
		<g>
			<path style="fill:#FFFFFF;" d="M412.742,296.51c13.468-0.712,24.179-11.826,24.179-25.472c0-14.106-11.435-25.541-25.541-25.541
				c-2.572,0-5.051,0.389-7.392,1.095c-4.332-17.832-20.361-31.089-39.527-31.089c-19.001,0-34.914,13.033-39.409,30.634
				c-1.811-0.407-3.687-0.64-5.62-0.64c-14.107,0-25.541,11.435-25.541,25.541c0,13.422,10.362,24.397,23.52,25.43L412.742,296.51z"
				/>
			<path style="fill:#89AAFB;" d="M381.754,251.921l-15.861-15.861c-0.269-0.269-0.706-0.269-0.975,0l-15.862,15.862
				c-1.137,1.137-0.995,3.076,0.424,4.015c1.033,0.682,2.421,0.478,3.296-0.397l10.034-10.034v31.447
				c0,1.238,0.837,2.365,2.05,2.613c1.668,0.342,3.14-0.93,3.14-2.539v-31.522l10.085,10.085c0.491,0.49,1.142,0.76,1.835,0.76
				c0.693,0,1.344-0.27,1.834-0.76c0.49-0.49,0.76-1.142,0.76-1.835C382.515,253.062,382.245,252.411,381.754,251.921z"/>
		</g>
		<g>
			<polygon style="fill:#89AAFB;" points="466.773,346.515 464.603,346.515 464.603,345.895 466.153,345.895 466.153,344.345 
				466.773,344.345 			"/>
			<path style="fill:#89AAFB;" d="M460.859,346.515h-3.743v-0.62h3.743V346.515z M453.373,346.515h-3.743v-0.62h3.743V346.515z
				 M445.887,346.515h-3.743v-0.62h3.743V346.515z M438.4,346.515h-3.743v-0.62h3.743V346.515z M430.914,346.515h-3.743v-0.62h3.743
				V346.515z M423.427,346.515h-3.743v-0.62h3.743V346.515z M415.941,346.515h-3.743v-0.62h3.743V346.515z M408.454,346.515h-3.743
				v-0.62h3.743V346.515z M400.968,346.515h-3.743v-0.62h3.743V346.515z M393.481,346.515h-3.743v-0.62h3.743V346.515z
				 M385.995,346.515h-3.743v-0.62h3.743V346.515z M378.509,346.515h-3.743v-0.62h3.743V346.515z M371.022,346.515h-3.743v-0.62
				h3.743V346.515z M363.535,346.515h-3.743v-0.62h3.743V346.515z M356.049,346.515h-3.743v-0.62h3.743V346.515z M348.562,346.515
				h-3.743v-0.62h3.743V346.515z M341.076,346.515h-3.743v-0.62h3.743V346.515z M333.589,346.515h-3.743v-0.62h3.743V346.515z
				 M326.103,346.515h-3.743v-0.62h3.743V346.515z M318.616,346.515h-3.743v-0.62h3.743V346.515z M311.13,346.515h-3.743v-0.62
				h3.743V346.515z M303.643,346.515H299.9v-0.62h3.743V346.515z M296.157,346.515h-3.743v-0.62h3.743V346.515z M288.671,346.515
				h-3.743v-0.62h3.743V346.515z M281.184,346.515h-3.743v-0.62h3.743V346.515z M273.697,346.515h-3.743v-0.62h3.743V346.515z"/>
			<polygon style="fill:#89AAFB;" points="266.211,346.515 264.04,346.515 264.04,344.345 264.66,344.345 264.66,345.895 
				266.211,345.895 			"/>
			<path style="fill:#89AAFB;" d="M264.66,340.697h-0.62v-3.648h0.62V340.697z M264.66,333.402h-0.62v-3.648h0.62V333.402z
				 M264.66,326.107h-0.62v-3.648h0.62V326.107z M264.66,318.813h-0.62v-3.648h0.62V318.813z M264.66,311.518h-0.62v-3.648h0.62
				V311.518z M264.66,304.223h-0.62v-3.648h0.62V304.223z M264.66,296.928h-0.62v-3.647h0.62V296.928z M264.66,289.633h-0.62v-3.648
				h0.62V289.633z M264.66,282.337h-0.62v-3.647h0.62V282.337z M264.66,275.043h-0.62v-3.647h0.62V275.043z M264.66,267.749h-0.62
				v-3.648h0.62V267.749z M264.66,260.453h-0.62v-3.648h0.62V260.453z M264.66,253.158h-0.62v-3.647h0.62V253.158z M264.66,245.864
				h-0.62v-3.648h0.62V245.864z M264.66,238.569h-0.62v-3.648h0.62V238.569z M264.66,231.274h-0.62v-3.647h0.62V231.274z
				 M264.66,223.979h-0.62v-3.648h0.62V223.979z M264.66,216.684h-0.62v-3.648h0.62V216.684z M264.66,209.389h-0.62v-3.648h0.62
				V209.389z M264.66,202.094h-0.62v-3.648h0.62V202.094z"/>
			<polygon style="fill:#89AAFB;" points="264.66,194.799 264.04,194.799 264.04,192.629 266.211,192.629 266.211,193.249 
				264.66,193.249 			"/>
			<path style="fill:#89AAFB;" d="M460.859,193.249h-3.743v-0.62h3.743V193.249z M453.373,193.249h-3.743v-0.62h3.743V193.249z
				 M445.887,193.249h-3.743v-0.62h3.743V193.249z M438.4,193.249h-3.743v-0.62h3.743V193.249z M430.914,193.249h-3.743v-0.62h3.743
				V193.249z M423.427,193.249h-3.743v-0.62h3.743V193.249z M415.941,193.249h-3.743v-0.62h3.743V193.249z M408.454,193.249h-3.743
				v-0.62h3.743V193.249z M400.968,193.249h-3.744v-0.62h3.744V193.249z M393.48,193.249h-3.743v-0.62h3.743V193.249z
				 M385.994,193.249h-3.743v-0.62h3.743V193.249z M378.507,193.249h-3.743v-0.62h3.743V193.249z M371.021,193.249h-3.743v-0.62
				h3.743V193.249z M363.535,193.249h-3.743v-0.62h3.743V193.249z M356.049,193.249h-3.743v-0.62h3.743V193.249z M348.562,193.249
				h-3.743v-0.62h3.743V193.249z M341.076,193.249h-3.743v-0.62h3.743V193.249z M333.589,193.249h-3.743v-0.62h3.743V193.249z
				 M326.102,193.249h-3.743v-0.62h3.743V193.249z M318.616,193.249h-3.743v-0.62h3.743V193.249z M311.129,193.249h-3.743v-0.62
				h3.743V193.249z M303.643,193.249H299.9v-0.62h3.743V193.249z M296.156,193.249h-3.743v-0.62h3.743V193.249z M288.67,193.249
				h-3.743v-0.62h3.743V193.249z M281.184,193.249h-3.743v-0.62h3.743V193.249z M273.697,193.249h-3.743v-0.62h3.743V193.249z"/>
			<polygon style="fill:#89AAFB;" points="466.773,194.799 466.153,194.799 466.153,193.249 464.603,193.249 464.603,192.629 
				466.773,192.629 			"/>
			<path style="fill:#89AAFB;" d="M466.773,340.697h-0.62v-3.648h0.62V340.697z M466.773,333.402h-0.62v-3.648h0.62V333.402z
				 M466.773,326.107h-0.62v-3.648h0.62V326.107z M466.773,318.812h-0.62v-3.646h0.62V318.812z M466.773,311.518h-0.62v-3.648h0.62
				V311.518z M466.773,304.223h-0.62v-3.648h0.62V304.223z M466.773,296.928h-0.62v-3.647h0.62V296.928z M466.773,289.633h-0.62
				v-3.648h0.62V289.633z M466.773,282.337h-0.62v-3.647h0.62V282.337z M466.773,275.043h-0.62v-3.647h0.62V275.043z
				 M466.773,267.749h-0.62v-3.648h0.62V267.749z M466.773,260.453h-0.62v-3.648h0.62V260.453z M466.773,253.158h-0.62v-3.648h0.62
				V253.158z M466.773,245.864h-0.62v-3.648h0.62V245.864z M466.773,238.569h-0.62v-3.648h0.62V238.569z M466.773,231.274h-0.62
				v-3.647h0.62V231.274z M466.773,223.979h-0.62v-3.648h0.62V223.979z M466.773,216.684h-0.62v-3.648h0.62V216.684z
				 M466.773,209.389h-0.62v-3.647h0.62V209.389z M466.773,202.094h-0.62v-3.648h0.62V202.094z"/>
		</g>
		<text transform="matrix(1 0 0 1 311.8125 325.5547)" style="fill:#89AAFB; font-family:'Montserrat-Light'; font-size:17.508px;">Drag &amp; Drop</text>
	</g>
	<g>
		<g>
			<g>
				<polygon style="fill:#FFBE8C;" points="171.502,390.546 153.993,389.294 152.454,383.904 156.36,377.397 166.394,382.409 				
					"/>
				<g>
					<path style="fill:#94DB79;" d="M153.993,389.294l-25.356,3.987c-2.708,0.426-4.174-3.063-1.974-4.699l29.129-21.9
						c2.268-1.578,10.601,15.727,10.601,15.727l-2.098-0.44C159.382,380.939,154.634,384.315,153.993,389.294L153.993,389.294z"/>
					<path style="fill:#732CB5;" d="M125.535,393.455l-1.85-2.449c-0.374-0.495-0.276-1.199,0.219-1.573l31.923-24.112
						c0.495-0.374,1.199-0.276,1.573,0.219l1.85,2.449c0.374,0.495,0.276,1.199-0.219,1.573l-31.923,24.112
						C126.613,394.048,125.909,393.95,125.535,393.455z"/>
					<path style="fill:#732CB5;" d="M149.922,384.826c0.179-0.138,0.402-0.223,0.645-0.232c0.624-0.024,1.15,0.463,1.174,1.087
						l0.162,4.244c0.025,0.624-0.462,1.151-1.088,1.173c-0.624,0.024-1.15-0.463-1.173-1.087l-0.162-4.244
						C149.465,385.386,149.641,385.042,149.922,384.826z"/>
					<path style="fill:#732CB5;" d="M145.622,385.355c0.179-0.138,0.402-0.223,0.645-0.232c0.625-0.024,1.15,0.463,1.173,1.087
						l0.162,4.244c0.024,0.624-0.462,1.151-1.088,1.173c-0.624,0.024-1.15-0.463-1.173-1.087l-0.162-4.244
						C145.165,385.915,145.341,385.571,145.622,385.355z"/>
					<path style="fill:#732CB5;" d="M141.063,386.014c0.179-0.138,0.402-0.223,0.645-0.232c0.624-0.025,1.15,0.463,1.173,1.087
						l0.162,4.245c0.024,0.624-0.462,1.151-1.088,1.173c-0.624,0.025-1.15-0.463-1.173-1.087l-0.162-4.245
						C140.605,386.574,140.781,386.23,141.063,386.014z"/>
				</g>
			</g>
			<g>
				<polygon style="fill:#FFBE8C;" points="162.793,391.875 145.284,390.624 143.746,385.233 147.651,378.727 157.685,383.738 				
					"/>
				<g>
					<path style="fill:#94DB79;" d="M145.284,390.624l-25.356,3.987c-2.709,0.426-4.174-3.063-1.974-4.699l29.129-21.9
						c2.268-1.578,10.601,15.727,10.601,15.727l-2.099-0.44C150.673,382.268,145.925,385.644,145.284,390.624L145.284,390.624z"/>
					<path style="fill:#732CB5;" d="M116.826,394.784l-1.85-2.449c-0.374-0.495-0.276-1.199,0.219-1.573l31.923-24.112
						c0.495-0.374,1.199-0.276,1.573,0.219l1.85,2.449c0.374,0.495,0.276,1.199-0.219,1.573l-31.923,24.112
						C117.904,395.377,117.2,395.279,116.826,394.784z"/>
					<path style="fill:#732CB5;" d="M141.213,386.155c0.179-0.137,0.402-0.223,0.645-0.232c0.624-0.024,1.15,0.463,1.173,1.087
						l0.162,4.244c0.025,0.624-0.462,1.151-1.088,1.173c-0.624,0.024-1.15-0.463-1.173-1.087l-0.162-4.244
						C140.756,386.715,140.932,386.371,141.213,386.155z"/>
					<path style="fill:#732CB5;" d="M136.913,386.684c0.179-0.138,0.402-0.223,0.645-0.232c0.624-0.024,1.15,0.463,1.173,1.087
						l0.162,4.244c0.024,0.624-0.462,1.151-1.088,1.173c-0.624,0.024-1.15-0.463-1.174-1.087l-0.162-4.244
						C136.456,387.244,136.632,386.9,136.913,386.684z"/>
					<path style="fill:#732CB5;" d="M132.354,387.343c0.179-0.138,0.402-0.223,0.645-0.232c0.624-0.025,1.15,0.463,1.174,1.087
						l0.162,4.245c0.024,0.624-0.462,1.151-1.088,1.173c-0.624,0.025-1.15-0.463-1.173-1.087l-0.162-4.245
						C131.896,387.904,132.072,387.56,132.354,387.343z"/>
				</g>
			</g>
			<path style="fill:#973AED;" d="M196.875,306.596c0,0-7.997,25.161,2.477,34.326c6.48,5.67,7.037,23.669,7.037,23.669
				s-25.912,4.367-38.694,7.587l3.118,20.964c2.7-3.954,49.355,5.291,56.107-11.133c6.331-15.397,5.436-74.163,5.436-74.163
				L196.875,306.596z"/>
			<path style="fill:#973AED;" d="M191.618,311.445c0,0-11.996,23.519-3.158,34.27c5.468,6.652,3.08,24.5,3.08,24.5
				s-26.277,0.079-39.413,1.171l-0.344,21.192c3.309-3.461,60.635,9.865,66.391-13.11c4.046-16.149,8.247-61,8.247-61
				L191.618,311.445z"/>
		</g>
		<g>
			<g>
				<polygon style="fill:#FFBE8C;" points="258.79,224.267 250.859,223.691 236.241,245.251 225.825,245.523 225.281,261.738 
					244.806,259.601 				"/>
				<path style="fill:#FFFFFF;" d="M211.894,244.118l-16.624,8.455l6.741,5.796c5.213,4.282,8.301,5.202,15.177,4.255l8.092-0.886
					l0.544-16.215L211.894,244.118z"/>
			</g>
			<path style="fill:#FFFFFF;" d="M216.522,245.723l-17.707,2.581c-1.644,0.24-3.26,0.691-4.759,1.409
				c-8.078,3.868-8.809,14.686-7.63,19.866l6.863,29.19l-3.016,15.124l8.241,2.705c6.074,1.994,12.464,2.931,18.847,2.564
				c6.314-0.363,9.576-1.869,15.161-5.168l0,0l-2.804-27.053c7.673-14.448-2.022-33.847-6.815-39.172
				c-0.907-1.008-1.862-1.592-2.914-1.943C218.872,245.452,217.665,245.446,216.522,245.723z"/>
			<path style="fill:#FFBE8C;" d="M200.985,232.019l-0.635,16.05c0.143,1.733,4.536,5.959,9.176,6.792
				c2.722,0.488,5.105-1.89,4.676-4.622l-1.925-12.26L200.985,232.019z"/>
			<path style="fill:#D09164;" d="M213.116,243.325l-0.629-4.004l-5.636-1.83l-0.032,1.967
				C206.819,239.458,206.775,242.143,213.116,243.325z"/>
			<path style="fill:#FFBE8C;" d="M203.751,243.173l15.268-5.199c2.173-0.73,3.701-2.505,4.213-4.577
				c0.401-1.622,0.007-3.34-0.854-4.772l-6.104-12.264l-4.584-1.007l-13.642,8.787L203.751,243.173z"/>
			<path style="fill:#B87A48;" d="M217.748,219.321c0.043,0.211-4.45-3.01-4.45-3.01s1.761,7.025-1.598,10.617
				c-4.104,4.389-6.43,4.642-8.957,4.639l-3.64,8.594c0,0-11.147-6.99-6.093-20.287
				C195.914,212.229,215.525,208.486,217.748,219.321z"/>
			<path style="fill:#FFBE8C;" d="M201.018,237.357c1.867,1.238,4.383,0.728,5.622-1.139c1.238-1.867,0.728-4.384-1.139-5.622
				c-1.867-1.238-4.384-0.728-5.622,1.139C198.641,233.602,199.151,236.118,201.018,237.357z"/>
			<path style="fill:#1C2A36;" d="M203.971,232.827c-0.019-0.022-0.04-0.034-0.068-0.04c-0.035-0.016-0.063-0.044-0.099-0.057
				c-1.117-0.418-2.364,0.492-2.417,0.532c-0.059,0.043-0.071,0.126-0.027,0.185c0.043,0.058,0.126,0.071,0.185,0.027
				c0.011-0.007,0.986-0.711,1.903-0.556c-1.165,0.491-1.013,1.613-1.011,1.626c0.011,0.067,0.069,0.113,0.135,0.111
				c0.005,0,0.011-0.001,0.017-0.002c0.072-0.012,0.121-0.079,0.11-0.151c-0.007-0.046-0.148-1.108,1.148-1.445
				c0.525,0.268,0.904,0.869,1.111,1.822c0.014,0.064,0.071,0.106,0.134,0.104c0.008,0,0.016-0.001,0.024-0.003
				c0.071-0.016,0.117-0.086,0.101-0.157C204.991,233.792,204.567,233.134,203.971,232.827z"/>
			<path style="fill:#FFFFFF;" d="M203.82,237.654c0.026,0.803-0.605,1.476-1.408,1.501c-0.803,0.026-1.476-0.605-1.501-1.408
				c-0.026-0.803,0.605-1.475,1.408-1.501C203.122,236.22,203.794,236.851,203.82,237.654z"/>
			<path style="fill:#1C2A36;" d="M216.236,223.475c0.107,0.317,0.45,0.487,0.767,0.381c0.317-0.107,0.487-0.45,0.381-0.767
				c-0.107-0.317-0.45-0.487-0.767-0.381C216.3,222.815,216.129,223.159,216.236,223.475z"/>
			<path style="fill:#1C2A36;" d="M218.771,229.554c-0.72,0.039-1.581-0.104-2.579-0.585c-0.069-0.033-0.098-0.117-0.065-0.187
				c0.033-0.069,0.116-0.099,0.187-0.065c3.212,1.547,4.843-0.531,4.911-0.619c0.047-0.06,0.135-0.074,0.195-0.027
				c0.061,0.046,0.074,0.134,0.027,0.195C221.435,228.283,220.521,229.459,218.771,229.554z"/>
			<path style="fill:#FFBE8C;" d="M218.123,220.282l3.317,2.539c0.429,0.329,0.551,0.924,0.284,1.395l-0.875,1.544L218.123,220.282z
				"/>
			<g>
				<g>
					<g>
						<g id="XMLID_28_">
							<path style="fill:#C7A031;" d="M285.198,195.246l47.776-9.687c1.821-0.369,3.583,0.849,3.881,2.683l9.421,57.998
								c0.282,1.735-0.858,3.383-2.581,3.732l-79.765,16.172c-1.723,0.349-3.414-0.725-3.83-2.433l-13.913-57.087
								c-0.44-1.805,0.709-3.614,2.53-3.983l0,0C250.166,202.349,283.749,195.54,285.198,195.246z"/>
						</g>
						<g>
							
								<rect x="258.879" y="185.085" transform="matrix(0.9682 -0.25 0.25 0.9682 -43.7587 78.3304)" style="fill:#89AAFB;" width="55.149" height="52.656"/>
							<g>
								
									<rect x="262.286" y="188.201" transform="matrix(0.9682 -0.25 0.25 0.9682 -43.7357 78.3495)" style="fill:#FFFFFF;" width="48.503" height="46.259"/>
							</g>
							<g>
								<polygon style="fill:#89AAFB;" points="315.746,227.656 289.688,234.4 297.939,212.566 								"/>
								<polygon style="fill:#89AAFB;" points="299.454,231.872 268.826,239.798 277.617,210.629 								"/>
								<path style="fill:#89AAFB;" d="M293.36,201.794c0.825,3.069-0.995,6.225-4.063,7.049c-3.069,0.824-6.224-0.995-7.049-4.063
									c-0.824-3.069,0.995-6.225,4.063-7.049C289.38,196.907,292.536,198.726,293.36,201.794z"/>
							</g>
						</g>
						<g>
							
								<rect x="267.45" y="182.872" transform="matrix(0.9987 -0.0511 0.0511 0.9987 -10.3106 15.3583)" style="fill:#89AAFB;" width="55.149" height="52.656"/>
							<g>
								
									<rect x="270.872" y="186.006" transform="matrix(0.9987 -0.0511 0.0511 0.9987 -10.3073 15.3635)" style="fill:#FFFFFF;" width="48.503" height="46.26"/>
							</g>
							<g>
								<polygon style="fill:#89AAFB;" points="320.473,230.978 293.592,232.369 306.047,212.628 								"/>
								<polygon style="fill:#89AAFB;" points="303.667,231.848 272.072,233.482 286.524,206.663 								"/>
								<path style="fill:#89AAFB;" d="M303.716,201.159c0.194,3.171-2.221,5.899-5.392,6.093c-3.172,0.193-5.899-2.221-6.093-5.392
									c-0.193-3.171,2.221-5.899,5.392-6.093C300.795,195.573,303.523,197.987,303.716,201.159z"/>
							</g>
						</g>
						<g id="XMLID_24_">
							<path style="fill:#FFC53D;" d="M330.335,188.441l-2.132-4.259c-0.662-1.322-2.128-2.036-3.577-1.743l-21.658,4.391
								c-1.449,0.294-2.521,1.523-2.616,2.998l-0.305,4.753c-0.095,1.476-1.167,2.704-2.616,2.998l-47.776,9.686
								c-1.821,0.369-2.97,2.178-2.53,3.983l13.913,57.087c0.416,1.708,2.107,2.782,3.83,2.433l79.765-16.172
								c1.723-0.349,2.862-1.997,2.58-3.732l-9.42-57.998c-0.298-1.834-2.06-3.052-3.881-2.683l0,0
								C332.463,190.477,330.996,189.763,330.335,188.441z"/>
						</g>
						<path style="fill:#FFFFFF;" d="M337.212,249.308l-29.811,6.044c-0.918,0.186-1.813-0.407-1.999-1.325l-0.898-4.431
							c-0.186-0.918,0.407-1.813,1.325-1.999l29.81-6.044c0.918-0.186,1.813,0.407,1.999,1.325l0.899,4.43
							C338.723,248.226,338.13,249.122,337.212,249.308z"/>
					</g>
				</g>
			</g>
			<g>
				<polygon style="fill:#FFBE8C;" points="262.92,269.646 256.255,263.259 227.871,280.254 220.437,274.419 207.944,288.516 
					226.987,301.061 				"/>
				<path style="fill:#FFFFFF;" d="M217.043,271.755l-29.148-13.655l1.736,10.174c1.491,7.689,3.572,10.797,10.421,15.042
					l7.892,5.199l12.493-14.097L217.043,271.755z"/>
			</g>
			<g>
				<g>
					<path style="fill:#FFBE8C;" d="M267.783,265.293l5.581-6.397c0.186-0.185,0.415-0.317,0.669-0.381
						c0.757-0.191,2.914-0.249,2.762,0.504c-0.2,0.989-6.74,7.763-6.74,7.763"/>
					<path style="fill:#FFBE8C;" d="M258.426,261.359l2.674-0.506c0.474-0.09,0.928-0.263,1.34-0.512l5.49-3.784
						c0.76-0.524,1.749-0.675,2.588-0.291c0.385,0.177,0.685,0.441,0.688,0.839c0.007,1.113-5.917,6.306-5.917,6.306l7.132-7.105
						c0.148-0.147,0.331-0.251,0.533-0.304c0.795-0.21,2.797-0.653,2.614,0.252c-0.228,1.128-7.687,8.854-7.687,8.854"/>
					<path style="fill:#FFBE8C;" d="M276.208,261.323c-0.437-0.009-1.084,0.239-1.769,0.618l-4.108,3.941l-5.112-2.98l-6.794-1.543
						l-3.601,3.118c0,0,0.251,6.904,10.197,7.141c0.686,0.016,1.365-0.169,1.953-0.521l5.02-3.014
						c0.09-0.074,0.171-0.156,0.242-0.248c0.714-0.916,4.837-5.394,4.928-5.845C277.218,261.732,276.608,261.331,276.208,261.323z"
						/>
				</g>
				<path style="fill:#FFBE8C;" d="M262.139,260.499l-2.326,0.533c-0.495,0.113-1.027-0.146-1.179-0.631
					c-0.171-0.546-0.148-1.261-0.247-1.835l-0.11-2.984c-0.014-0.382-0.415-0.63-0.759-0.462c-0.661,0.324-2.108,1.904-2.264,3.795
					l-0.73,6.111L262.139,260.499z"/>
			</g>
			<path style="fill:#1C2A36;" d="M265.291,263.659c-0.036,0-0.072-0.014-0.099-0.041c-0.057-0.056-0.058-0.146-0.002-0.202
				l5.498-5.585c0.056-0.057,0.147-0.056,0.202-0.002c0.057,0.056,0.057,0.147,0.002,0.203l-5.498,5.585
				C265.367,263.646,265.329,263.66,265.291,263.659z"/>
			<path style="fill:#1C2A36;" d="M267.637,265.153c-0.036-0.001-0.072-0.014-0.099-0.042c-0.056-0.056-0.057-0.147-0.002-0.203
				l6.272-6.371c0.056-0.057,0.148-0.057,0.202-0.002c0.057,0.056,0.058,0.147,0.002,0.203l-6.272,6.371
				C267.712,265.14,267.674,265.154,267.637,265.153z"/>
			<path style="fill:#1C2A36;" d="M270.031,266.688c-0.036,0-0.072-0.014-0.099-0.042c-0.057-0.056-0.057-0.147-0.002-0.202
				l4.694-4.769c0.056-0.057,0.147-0.057,0.203-0.002c0.057,0.056,0.058,0.147,0.002,0.203l-4.694,4.769
				C270.106,266.674,270.068,266.688,270.031,266.688z"/>
			<path style="fill:#B87A48;" d="M199.893,236.315c0,0-10.476,10.301,1.356,16.926c11.832,6.626,14.05,12.014,14.05,12.014
				s3.868-7.198-4.46-15.504C202.511,241.445,199.893,236.315,199.893,236.315z"/>
		</g>
		<path style="fill:#732CB5;" d="M220.965,381.592c-0.002,0-0.003,0-0.005,0c-0.165-0.003-0.296-0.139-0.293-0.303l0.768-47.237
			c0.003-0.165,0.144-0.307,0.303-0.293c0.165,0.002,0.296,0.138,0.293,0.303l-0.768,47.237
			C221.26,381.461,221.128,381.592,220.965,381.592z"/>
		<path style="fill:#999999;" d="M220.437,274.717c-0.074,0-0.148-0.027-0.205-0.082l-9.689-9.239
			c-0.119-0.114-0.124-0.303-0.01-0.421c0.115-0.119,0.303-0.123,0.421-0.011l9.688,9.239c0.119,0.114,0.124,0.303,0.011,0.421
			C220.594,274.686,220.516,274.717,220.437,274.717z"/>
	</g>
	<g>
		<g>
			<g>
				<g>
					<g>
						<g>
							<polygon style="fill:#FFBE8C;" points="481.331,322.846 492.243,324.293 507.921,298.315 525.388,262.306 509.155,253.207 
								494.04,291.566 							"/>
						</g>
					</g>
					<path style="fill:#FFFFFF;" d="M522.912,251.607l-2.565-1.585c-3.787-2.34-8.754-1.167-11.094,2.621l-11.76,22.034
						l16.138,10.288l11.902-22.263C527.873,258.915,526.699,253.947,522.912,251.607z"/>
				</g>
				<g>
					<g>
						<path style="fill:#FFBE8C;" d="M575.328,384.938c3.919,4.884,11.098,15.382,12.302,17.307
							c0.952,1.522-9.737,8.723-10.272,8.137c-2.984-3.273-11.098-12.261-13.258-14.59c-3.647-3.931-7.898-8.753-12.033-13.761
							l14.593-10.591C569.862,376.86,573.279,382.384,575.328,384.938z"/>
						<g>
							<linearGradient id="SVGID_1_" gradientUnits="userSpaceOnUse" x1="565.4197" y1="416.1942" x2="596.8125" y2="416.1942">
								<stop  offset="0.2416" style="stop-color:#94DB79"/>
								<stop  offset="0.734" style="stop-color:#94DB79"/>
							</linearGradient>
							<path style="fill:url(#SVGID_1_);" d="M575.184,408.085l-9.553,22.653c-1.021,2.42,1.885,4.587,3.914,2.919l27.076-22.031
								c1.99-1.744-12.177-13.482-12.177-13.482l-0.075,2.052C584.194,405.001,579.961,408.637,575.184,408.085L575.184,408.085z"/>
							<path style="fill:#732CB5;" d="M564.784,433.619l1.791,2.211c0.39,0.482,1.098,0.556,1.58,0.166l29.704-24.059
								c0.482-0.39,0.556-1.098,0.166-1.579l-1.791-2.211c-0.39-0.482-1.097-0.556-1.579-0.166l-29.704,24.059
								C564.468,432.43,564.394,433.137,564.784,433.619z"/>
							<path style="fill:#732CB5;" d="M577.801,413.134c0.44-0.032,0.833-0.332,0.963-0.779c0.166-0.576-0.165-1.177-0.74-1.343
								l-3.908-1.13c-0.574-0.163-1.176,0.166-1.342,0.74c-0.166,0.575,0.165,1.177,0.74,1.343l3.908,1.13
								C577.549,413.131,577.677,413.143,577.801,413.134z"/>
							<path style="fill:#732CB5;" d="M576.318,417.009c0.44-0.032,0.833-0.332,0.963-0.781c0.166-0.574-0.166-1.175-0.741-1.342
								l-3.908-1.129c-0.575-0.164-1.176,0.165-1.342,0.741c-0.167,0.574,0.165,1.175,0.74,1.342l3.908,1.129
								C576.066,417.006,576.194,417.018,576.318,417.009z"/>
							<path style="fill:#732CB5;" d="M574.653,421.096c0.44-0.032,0.833-0.332,0.963-0.781c0.167-0.574-0.165-1.175-0.74-1.342
								l-3.908-1.129c-0.575-0.165-1.176,0.166-1.342,0.741c-0.166,0.574,0.165,1.175,0.741,1.342l3.908,1.129
								C574.401,421.093,574.529,421.105,574.653,421.096z"/>
						</g>
						<path style="fill:#973AED;" d="M520.501,319.859l24.11-21.544c0,0,15.838,20.626,11.646,38.238
							c-2.839,11.927,9.892,31.232,19.586,38.783l-25.835,18.859c-5.613-6.798-9.825-15.24-11.95-20.893
							C531.857,356.81,520.501,319.859,520.501,319.859z"/>
						<path style="fill:#FFBE8C;" d="M520.206,398.886c0.021,6.394-0.93,19.345-1.194,21.648c-0.209,1.822-13.327,0.767-13.38-0.041
							c-0.299-4.513-1.057-16.853-1.3-20.087c-0.41-5.46-0.734-12.016-0.848-18.646l18.392,0.831
							C520.983,388.957,520.195,395.542,520.206,398.886z"/>
						<g>
							
								<linearGradient id="SVGID_00000059281176513646863300000017156178023549073025_" gradientUnits="userSpaceOnUse" x1="482.7085" y1="423.1662" x2="521.9221" y2="423.1662">
								<stop  offset="0.2416" style="stop-color:#94DB79"/>
								<stop  offset="0.734" style="stop-color:#94DB79"/>
							</linearGradient>
							<path style="fill:url(#SVGID_00000059281176513646863300000017156178023549073025_);" d="M506.098,415.773l-22.046,12.007
								c-2.355,1.282-1.414,4.862,1.267,4.822l35.641-0.357c2.699-0.126-1.141-18.514-1.141-18.514l-1.366,1.591
								C515.255,419.047,509.56,419.255,506.098,415.773L506.098,415.773z"/>
							<path style="fill:#732CB5;" d="M480.802,431.019l0.023,2.952c0.005,0.62,0.512,1.119,1.132,1.114l39.077-0.303
								c0.62-0.005,1.119-0.511,1.114-1.132l-0.023-2.952c-0.005-0.62-0.512-1.119-1.132-1.114l-39.077,0.303
								C481.296,429.892,480.797,430.399,480.802,431.019z"/>
							<path style="fill:#732CB5;" d="M504.861,423.166c0.221,0,0.445-0.066,0.639-0.204c0.499-0.354,0.617-1.044,0.263-1.542
								l-2.402-3.389c-0.352-0.499-1.043-0.618-1.543-0.263c-0.499,0.353-0.616,1.044-0.263,1.542l2.402,3.389
								C504.172,423.004,504.514,423.166,504.861,423.166z"/>
							<path style="fill:#732CB5;" d="M501.21,425.316c0.221,0,0.445-0.066,0.639-0.204c0.499-0.353,0.617-1.044,0.263-1.542
								l-2.402-3.389c-0.353-0.498-1.044-0.618-1.543-0.263c-0.499,0.353-0.617,1.044-0.263,1.542l2.402,3.389
								C500.521,425.154,500.863,425.316,501.21,425.316z"/>
							<path style="fill:#732CB5;" d="M497.28,427.52c0.221,0,0.445-0.066,0.639-0.204c0.499-0.352,0.616-1.044,0.263-1.542
								l-2.402-3.39c-0.353-0.498-1.044-0.618-1.543-0.263c-0.499,0.352-0.616,1.044-0.263,1.542l2.402,3.39
								C496.591,427.358,496.933,427.52,497.28,427.52z"/>
						</g>
						<path style="fill:#973AED;" d="M513.207,312.4l31.343-5.076c0,0,8.131,28.292-6.126,39.451
							c-9.655,7.557-14.13,36.743-11.257,48.689l-31.957-1.357c-0.151-8.814,4.49-28.943,6.351-34.688
							C506.993,342.658,513.207,312.4,513.207,312.4z"/>
						<path style="fill:#732CB5;" d="M532.082,356.437c-0.121,0-0.235-0.077-0.276-0.2l-4.599-13.902
							c-0.05-0.152,0.032-0.317,0.185-0.367c0.148-0.051,0.316,0.032,0.367,0.185l4.599,13.902c0.05,0.152-0.032,0.317-0.185,0.367
							C532.143,356.432,532.113,356.437,532.082,356.437z"/>
					</g>
					<path style="fill:#FFFFFF;" d="M516.1,248.82l25.778,0.6c11.184,1.073,14.749,7.657,14.689,13.778l-0.471,29.072l4.941,30.207
						l-53.659,3.082l-1.395-52.154c-1.43-7.299,0.408-14.644,4.095-21.103c0.664-1.163,1.455-1.945,2.382-2.525
						C513.544,249.098,514.821,248.79,516.1,248.82z"/>
					<path style="fill:#FFBE8C;" d="M531.628,235.467l1.719,13.422c0.237,1.789-3.287,7.046-7.811,8.915
						c-2.654,1.096-5.596-0.791-5.764-3.658l-0.751-12.863L531.628,235.467z"/>
					<path style="fill:#D09164;" d="M519.344,246.826l-0.331-5.797l9.078-6.703l0.111,2.33
						C528.202,236.656,527.57,240.695,519.344,246.826z"/>
					<path style="fill:#FFBE8C;" d="M532.159,239.619l-15.969,3.623c-2.318,0.544-4.636-0.187-6.221-1.736
						c-1.241-1.212-1.832-2.944-1.856-4.679l0.854-14.996l20.88-4.896L532.159,239.619z"/>
					<path style="fill:#FF7738;" d="M506.224,218.352c1.926,10.42,17.709,1.005,18.015,5.548c0.783,11.62,7.231,8.965,7.231,8.965
						s8.279-17.37-2.017-17.604C519.157,215.027,503.378,202.948,506.224,218.352z"/>
					<path style="fill:#FFBE8C;" d="M534.53,228.832c0.547,2.334-0.901,4.67-3.235,5.217c-2.334,0.547-4.67-0.901-5.217-3.235
						c-0.547-2.334,0.901-4.67,3.235-5.217C531.647,225.05,533.983,226.498,534.53,228.832z"/>
					<path style="fill:#FFBE8C;" d="M509.559,224.931l-3.304,5.742c-0.492,0.855,0.23,1.749,1.346,1.667l2.289-0.286
						L509.559,224.931z"/>
					<path style="fill:#1C2A36;" d="M512.89,228.09c0.079,0.338-0.131,0.676-0.468,0.756c-0.338,0.079-0.676-0.13-0.756-0.468
						c-0.079-0.338,0.13-0.676,0.469-0.756C512.473,227.543,512.811,227.753,512.89,228.09z"/>
					<path style="fill:#1C2A36;" d="M513.104,234.368c0.565-0.358,1.138-0.93,1.633-1.831c0.034-0.062,0.011-0.141-0.052-0.176
						c-0.062-0.035-0.141-0.012-0.176,0.051c-1.594,2.898-3.945,2.206-4.044,2.176c-0.068-0.02-0.142,0.016-0.162,0.085
						c-0.021,0.068,0.016,0.141,0.084,0.162C510.407,234.842,511.73,235.238,513.104,234.368z"/>
					<g>
						
							<rect x="506.401" y="267.441" transform="matrix(0.9974 0.0719 -0.0719 0.9974 23.5157 -38.6187)" style="fill:#89AAFB;" width="83.543" height="79.767"/>
						<g>
							
								<rect x="513.295" y="270.509" transform="matrix(0.0719 -0.9974 0.9974 0.0719 202.4558 832.069)" style="fill:#FFFFFF;" width="70.076" height="73.475"/>
						</g>
						<g>
							<polygon style="fill:#89AAFB;" points="582.644,345.213 541.679,342.282 564.238,314.724 							"/>
							<polygon style="fill:#89AAFB;" points="557.033,343.381 508.884,339.936 535.794,302.033 							"/>
							<path style="fill:#89AAFB;" d="M562.859,296.919c-0.301,4.839-4.468,8.517-9.307,8.216c-4.839-0.301-8.517-4.468-8.216-9.307
								c0.301-4.839,4.468-8.517,9.307-8.216C559.482,287.914,563.16,292.081,562.859,296.919z"/>
						</g>
					</g>
					<g>
						<path style="fill:#FFBE8C;" d="M570.127,318.284l-2.643-24.32l-27.905-27.613c-2.991-3.324-1.828-4.387,1.497-7.378
							l2.252-2.025c3.325-2.991,5.769-5.363,8.76-2.038l29.466,32.758l-1.567,32.147"/>
						<path style="fill:#FFFFFF;" d="M540.818,252.619l-2.207,2.053c-3.259,3.032-3.444,8.133-0.411,11.392l16.789,18.394
							l14.195-12.837l-6.419-7.245l-10.553-11.346C549.179,249.77,544.078,249.586,540.818,252.619z"/>
					</g>
					<g>
						<g>
							<g>
								<path style="fill:#FFBE8C;" d="M578.392,327.591l-1.405,8.373c-0.025,0.261,0.018,0.522,0.13,0.759
									c0.333,0.707,1.656,2.411,2.141,1.816c0.638-0.782,1.726-10.135,1.726-10.135"/>
								<path style="fill:#FFBE8C;" d="M569.415,322.853l1.305,2.388c0.231,0.423,0.385,0.884,0.455,1.361l0.557,6.645
									c0.077,0.92,0.588,1.781,1.417,2.185c0.381,0.186,0.776,0.25,1.085,0c0.865-0.701,1.122-8.574,1.122-8.574l-0.969,10.021
									c-0.02,0.208,0.016,0.415,0.103,0.604c0.342,0.748,1.269,2.577,1.853,1.861c0.727-0.892,1.969-11.559,1.969-11.559"/>
								<path style="fill:#FFBE8C;" d="M580.667,336.622c-0.284-0.332-0.503-0.989-0.645-1.76l0.441-5.675l-5.546-2.062
									l-5.502-4.273l0.36-5.342c0,0,5.262-3.606,11.755,3.933c0.448,0.52,0.735,1.162,0.836,1.841l0.855,5.793
									c0,0.117-0.012,0.231-0.038,0.345c-0.256,1.133-1.102,7.161-1.393,7.517C581.624,337.143,580.928,336.926,580.667,336.622z"
									/>
							</g>
							<path style="fill:#FFBE8C;" d="M571.105,326.268l-1.063-2.136c-0.227-0.455-0.764-0.701-1.236-0.511
								c-0.531,0.214-1.069,0.686-1.575,0.974l-2.377,1.808c-0.304,0.231-0.751,0.079-0.839-0.293
								c-0.169-0.716,0.134-2.837,1.498-4.158l4.261-4.441L571.105,326.268z"/>
						</g>
						<path style="fill:#1C2A36;" d="M575.548,326.7c-0.023-0.027-0.056-0.046-0.095-0.05c-0.079-0.008-0.15,0.048-0.158,0.127
							l-0.83,7.793c-0.008,0.079,0.05,0.149,0.127,0.158c0.079,0.009,0.15-0.048,0.158-0.127l0.83-7.793
							C575.586,326.767,575.573,326.729,575.548,326.7z"/>
						<path style="fill:#1C2A36;" d="M578.191,327.566c-0.023-0.028-0.057-0.046-0.095-0.05c-0.079-0.008-0.15,0.049-0.158,0.127
							l-0.947,8.89c-0.009,0.079,0.05,0.151,0.127,0.158c0.079,0.008,0.15-0.048,0.157-0.127l0.947-8.89
							C578.228,327.633,578.215,327.594,578.191,327.566z"/>
						<path style="fill:#1C2A36;" d="M580.896,328.443c-0.023-0.027-0.057-0.046-0.095-0.05c-0.079-0.008-0.15,0.049-0.157,0.127
							l-0.709,6.654c-0.008,0.08,0.049,0.15,0.127,0.158c0.079,0.008,0.15-0.048,0.158-0.127l0.709-6.654
							C580.933,328.51,580.92,328.472,580.896,328.443z"/>
					</g>
				</g>
			</g>
		</g>
		<g>
			<path style="fill:#FFBE8C;" d="M482.242,320.422l-3.784,10.076c-0.123,0.326-0.167,0.677-0.129,1.024l1.086,9.971
				c0.106,0.977,0.841,1.769,1.807,1.948l0,0c1.014,0.188,2.025-0.345,2.442-1.289l3.429-7.752l5.447-10.639L482.242,320.422z"/>
			<g>
				<path style="fill:#1C2A36;" d="M479.855,342.38c-0.031,0.016-0.068,0.02-0.104,0.009c-0.074-0.022-0.116-0.1-0.094-0.174
					l2.104-7.109c0.022-0.075,0.102-0.117,0.174-0.094c0.074,0.022,0.116,0.1,0.094,0.174l-2.104,7.109
					C479.913,342.334,479.887,342.363,479.855,342.38z"/>
				<path style="fill:#1C2A36;" d="M479.345,338.171c-0.031,0.016-0.068,0.02-0.104,0.009c-0.074-0.022-0.116-0.1-0.094-0.174
					l1.427-5.01c0.022-0.075,0.102-0.116,0.174-0.094c0.074,0.022,0.117,0.1,0.094,0.174l-1.426,5.01
					C479.404,338.125,479.378,338.154,479.345,338.171z"/>
				<path style="fill:#1C2A36;" d="M478.96,334.077c-0.031,0.016-0.068,0.02-0.104,0.009c-0.074-0.022-0.116-0.1-0.094-0.174
					l1.12-3.922c0.022-0.075,0.102-0.117,0.174-0.094c0.074,0.022,0.117,0.1,0.094,0.174l-1.12,3.922
					C479.019,334.031,478.993,334.06,478.96,334.077z"/>
			</g>
			<path style="fill:#FFBE8C;" d="M491.345,324.261l0.018,9.738c0.001,0.504-0.572,0.809-0.977,0.508
				c-0.78-0.579-1.834-1.893-2.413-4.859C486.981,324.554,491.345,324.261,491.345,324.261z"/>
		</g>
		<path style="fill:#1C2A36;" d="M530.185,229.093c0.014-0.016,0.03-0.025,0.052-0.029c0.026-0.011,0.048-0.032,0.075-0.042
			c0.844-0.3,1.769,0.398,1.809,0.429c0.043,0.033,0.052,0.096,0.018,0.139c-0.033,0.043-0.095,0.052-0.139,0.018
			c-0.008-0.006-0.731-0.546-1.422-0.441c0.869,0.383,0.741,1.224,0.74,1.234c-0.009,0.05-0.053,0.084-0.103,0.082
			c-0.004,0-0.008-0.001-0.012-0.001c-0.054-0.01-0.09-0.061-0.081-0.115c0.006-0.035,0.124-0.83-0.845-1.099
			c-0.398,0.195-0.689,0.642-0.857,1.355c-0.011,0.048-0.055,0.079-0.102,0.077c-0.006,0-0.012-0.001-0.018-0.002
			c-0.053-0.013-0.086-0.066-0.074-0.119C529.407,229.806,529.734,229.317,530.185,229.093z"/>
	</g>
	<g>
		<g>
			<path style="fill:#B87A48;" d="M402.254,29.728c9.31-1.445,19.18,6.535,20.777,14.384c1.373,6.749-4.252,11.093-2.502,19.805
				c0.976,4.861,3.172,5.725,6.344,11.228c0.987,1.712,10.648,18.899,4.671,29.228c-5.19,8.968-19.419,11.897-29.246,6.344
				c-12.592-7.116-5.714-29.585-12.754-48.589C382.858,44.085,391.575,31.386,402.254,29.728z"/>
			<g>
				<g>
					<polygon style="fill:#FFBE8C;" points="395.295,129.297 388.857,123.081 404.251,94.95 405.478,84.406 406.331,77.082 
						425.323,70.628 420.504,98.097 					"/>
				</g>
				<polygon style="fill:#973AED;" points="405.478,71.547 404.812,89.232 422.059,89.232 425.323,70.628 				"/>
			</g>
			<g>
				<path style="fill:#973AED;" d="M408.007,67.428l17.317-11.257c9.76-5.383,17.417-3.179,20.795,1.867l18.035,29.516l10.632,7.958
					l-4.041,16.62c-5.605,7.698-13.718,13.201-22.943,15.564l0,0l-18.27-21.235c-16.244-4.475-23.91-25.455-24.507-32.809
					c-0.113-1.393,0.125-2.52,0.606-3.556C406.142,68.996,406.991,68.088,408.007,67.428z"/>
			</g>
			<path style="fill:#FFBE8C;" d="M415.507,43.25l11.562,13.969c0.969,1.506-0.962,6.467-4.233,10.055
				c-1.92,2.105-5.358,1.654-6.719-0.849l-6.107-11.228L415.507,43.25z"/>
			<path style="fill:#D09164;" d="M414.708,63.824l-2.746-5.064l5.317-9.851l1.083,2.044
				C418.363,50.954,419.502,54.847,414.708,63.824z"/>
			<path style="fill:#FFBE8C;" d="M420.049,49.761l-5.367,10.615c-1,2.139-2.993,3.497-5.173,3.781
				c-1.706,0.222-3.419-0.381-4.785-1.427l-11.843-7.67l10.076-17.75L420.049,49.761z"/>
			<path style="fill:#B87A48;" d="M392.881,55.06c0.475,0.864,16.649-5.974,17.116-10.129c0.914-8.149,8.679,2.131,8.679,2.131
				s-2.631-24.587-21.649-13.813C389.698,37.4,388.911,47.845,392.881,55.06z"/>
			<path style="fill:#FFBE8C;" d="M414.055,40.206c1.984,0.927,2.841,3.287,1.913,5.271c-0.927,1.984-3.287,2.841-5.271,1.913
				c-1.984-0.927-2.84-3.287-1.913-5.271C409.711,40.135,412.072,39.278,414.055,40.206z"/>
			<path style="fill:#1C2A36;" d="M411.909,43.487c0.004-0.028,0.015-0.048,0.035-0.068c0.02-0.031,0.029-0.069,0.051-0.099
				c0.693-0.925,2.187-0.835,2.25-0.831c0.07,0.005,0.124,0.066,0.119,0.137c-0.005,0.07-0.066,0.124-0.137,0.119
				c-0.013,0-1.176-0.064-1.843,0.542c1.207-0.209,1.671,0.786,1.676,0.798c0.026,0.06,0.003,0.129-0.052,0.161
				c-0.004,0.003-0.009,0.005-0.014,0.007c-0.065,0.028-0.14-0.001-0.169-0.066c-0.018-0.041-0.46-0.981-1.693-0.578
				c-0.288,0.494-0.283,1.182,0.047,2.068c0.022,0.059-0.003,0.124-0.054,0.155c-0.007,0.004-0.014,0.008-0.021,0.01
				c-0.066,0.024-0.14-0.009-0.165-0.075C411.582,44.808,411.584,44.05,411.909,43.487z"/>
			<path style="fill:#1C2A36;" d="M400.167,55.847c0.312,0.146,0.447,0.517,0.301,0.829c-0.146,0.312-0.517,0.447-0.829,0.301
				c-0.312-0.146-0.447-0.517-0.301-0.829C399.484,55.835,399.855,55.701,400.167,55.847z"/>
			<path style="fill:#1C2A36;" d="M406.094,59.146c0.124-0.732,0.077-1.629-0.3-2.707c-0.026-0.075-0.108-0.114-0.184-0.088
				c-0.075,0.026-0.115,0.107-0.088,0.183c1.211,3.466-1.105,4.894-1.204,4.954c-0.067,0.041-0.091,0.129-0.05,0.197
				c0.04,0.068,0.128,0.091,0.197,0.051C404.485,61.724,405.793,60.926,406.094,59.146z"/>
			<path style="fill:#FFBE8C;" d="M396.68,57.407l2.214,3.69c0.287,0.478,0.882,0.671,1.394,0.452l1.682-0.716L396.68,57.407z"/>
			<path style="fill:#FFFFFF;" d="M414.205,46.696c0.592,0.747,1.677,0.873,2.424,0.281c0.747-0.592,0.873-1.677,0.281-2.424
				c-0.592-0.747-1.678-0.873-2.425-0.281C413.738,44.864,413.613,45.949,414.205,46.696z"/>
			<g>
				<path style="fill:#1A1A1A;" d="M384.001,161.344c0.116,0.106,0.349,0.041,0.519-0.146c0.171-0.187,0.215-0.424,0.099-0.53
					c-0.116-0.106-0.349-0.041-0.519,0.146C383.929,161.001,383.885,161.238,384.001,161.344z"/>
			</g>
		</g>
		<g>
			<g>
				<polygon style="fill:#FFBE8C;" points="422.64,186.902 420.386,203.165 425.02,205.62 431.732,203.309 429.093,193.155 				"/>
				<g>
					<path style="fill:#94DB79;" d="M420.386,203.165l-8.57,22.427c-0.915,2.396,1.993,4.414,3.917,2.718l25.693-22.403
						c1.885-1.768-12.332-12.753-12.332-12.753l-0.005,2.005C429.077,199.856,425.066,203.546,420.386,203.165L420.386,203.165z"/>
					<path style="fill:#732CB5;" d="M411.103,228.452l1.787,2.058c0.406,0.468,1.116,0.518,1.584,0.112l28.15-24.434
						c0.468-0.407,0.518-1.116,0.112-1.584l-1.787-2.058c-0.407-0.468-1.116-0.518-1.584-0.112l-28.15,24.434
						C410.747,227.274,410.697,227.983,411.103,228.452z"/>
					<path style="fill:#732CB5;" d="M423.685,207.758c0.161-0.137,0.282-0.324,0.337-0.545c0.143-0.567-0.2-1.142-0.767-1.285
						l-3.852-0.972c-0.566-0.144-1.143,0.199-1.285,0.768c-0.143,0.567,0.2,1.142,0.767,1.285l3.852,0.972
						C423.083,208.068,423.433,207.973,423.685,207.758z"/>
					<path style="fill:#732CB5;" d="M422.366,211.59c0.161-0.137,0.282-0.324,0.337-0.545c0.143-0.567-0.2-1.142-0.767-1.285
						l-3.851-0.972c-0.566-0.143-1.143,0.199-1.285,0.767c-0.143,0.567,0.2,1.142,0.767,1.285l3.852,0.972
						C421.765,211.9,422.114,211.805,422.366,211.59z"/>
					<path style="fill:#732CB5;" d="M420.878,215.633c0.161-0.137,0.282-0.324,0.337-0.545c0.144-0.566-0.2-1.142-0.767-1.285
						l-3.853-0.972c-0.566-0.143-1.143,0.199-1.285,0.767c-0.144,0.566,0.2,1.142,0.767,1.285l3.853,0.972
						C420.276,215.943,420.625,215.849,420.878,215.633z"/>
				</g>
			</g>
			<g>
				<polygon style="fill:#FFBE8C;" points="433.9,182.294 431.247,199.646 436.164,202.339 443.373,199.97 440.705,189.075 				"/>
				<g>
					<path style="fill:#94DB79;" d="M431.247,199.646l-9.498,23.845c-1.014,2.547,2.064,4.749,4.146,2.965l27.801-23.563
						c2.041-1.862-12.992-13.817-12.992-13.817l-0.035,2.144C440.588,196.238,436.245,200.123,431.247,199.646L431.247,199.646z"/>
					<path style="fill:#732CB5;" d="M420.895,226.478l1.979,2.346c0.4,0.474,1.108,0.534,1.582,0.134l30.577-25.798
						c0.474-0.4,0.534-1.109,0.134-1.583l-1.979-2.346c-0.4-0.474-1.109-0.534-1.583-0.134l-30.577,25.798
						C420.555,225.296,420.495,226.004,420.895,226.478z"/>
					<path style="fill:#732CB5;" d="M434.705,204.604c0.174-0.144,0.307-0.342,0.369-0.578c0.161-0.604-0.197-1.224-0.8-1.385
						l-4.103-1.097c-0.603-0.162-1.224,0.195-1.385,0.801c-0.161,0.604,0.197,1.224,0.801,1.385l4.103,1.097
						C434.057,204.927,434.432,204.831,434.705,204.604z"/>
					<path style="fill:#732CB5;" d="M433.238,208.681c0.174-0.144,0.307-0.342,0.369-0.578c0.161-0.604-0.197-1.224-0.801-1.385
						l-4.103-1.097c-0.603-0.161-1.225,0.196-1.385,0.801c-0.161,0.604,0.197,1.224,0.8,1.385l4.103,1.097
						C432.59,209.003,432.965,208.908,433.238,208.681z"/>
					<path style="fill:#732CB5;" d="M431.586,212.981c0.174-0.144,0.307-0.342,0.369-0.578c0.162-0.603-0.197-1.224-0.8-1.385
						l-4.104-1.097c-0.603-0.161-1.225,0.196-1.385,0.801c-0.162,0.603,0.197,1.224,0.8,1.385l4.104,1.097
						C430.938,213.304,431.313,213.208,431.586,212.981z"/>
				</g>
			</g>
			<path style="fill:#FFFFFF;" d="M477.803,134.686c0,0-3.756,9.429-23.791,11.921c-11.467,1.426-30.22,11.248-30.22,11.248
				s10.254,24.194,14.413,36.702l-19.351,8.646c1.882-4.403-30.491-50.966-11.626-65.288c13.259-10.067,67.509-41.452,67.509-41.452
				L477.803,134.686z"/>
			<path style="fill:#FFFFFF;" d="M481.146,136.109c0,0-2.206,4.317-22.354,5.611c-11.532,0.741-26.607,12.822-26.607,12.822
				s10.264,24.524,13.67,37.258l-19.021,10.394c2.14-4.283-29.68-55.37-9.996-68.543c13.835-9.259,53.854-26.807,53.854-26.807
				L481.146,136.109z"/>
			<path style="fill:#FFFFFF;" d="M474.737,96.463c0,0,18.863,25.786,6.409,39.647L457.435,106.6L474.737,96.463z"/>
		</g>
		
			<line style="fill:none;stroke:#732CB5;stroke-width:0.5;stroke-linecap:round;stroke-miterlimit:10;" x1="407.822" y1="159.748" x2="424.381" y2="198.597"/>
		<g>
			
				<rect x="364.333" y="104.529" transform="matrix(0.8827 -0.47 0.47 0.8827 -14.7321 198.1659)" style="fill:#89AAFB;" width="50.398" height="48.12"/>
			<g>
				
					<rect x="367.427" y="107.361" transform="matrix(0.8827 -0.47 0.47 0.8827 -14.6824 198.1825)" style="fill:#FFFFFF;" width="44.324" height="42.274"/>
			</g>
			<g>
				<polygon style="fill:#89AAFB;" points="419.303,136.871 397.44,148.528 400.113,127.21 				"/>
				<polygon style="fill:#89AAFB;" points="405.634,144.159 379.938,157.859 381.511,129.861 				"/>
				<path style="fill:#89AAFB;" d="M393.692,118.56c1.4,2.568,0.453,5.784-2.115,7.184c-2.568,1.4-5.784,0.453-7.184-2.115
					c-1.4-2.568-0.453-5.784,2.115-7.184C389.076,115.045,392.292,115.992,393.692,118.56z"/>
			</g>
		</g>
		<g>
			<g>
				<polygon style="fill:#FFBE8C;" points="416.354,128.589 410.204,122.089 426.851,94.682 429.736,76.926 447.259,79.159 
					442.945,98.559 				"/>
			</g>
			<g>
				<g>
					<path style="fill:#FFBE8C;" d="M412.105,133.276l-6.235,5.371c-0.181,0.179-0.31,0.4-0.374,0.646
						c-0.19,0.733-0.259,2.823,0.471,2.68c0.96-0.188,7.566-6.485,7.566-6.485"/>
					<path style="fill:#FFBE8C;" d="M408.349,124.182l-0.507,2.589c-0.09,0.459-0.261,0.897-0.504,1.296l-3.702,5.298
						c-0.512,0.733-0.665,1.691-0.297,2.507c0.169,0.374,0.424,0.667,0.809,0.672c1.079,0.013,6.148-5.696,6.148-5.696l-6.931,6.869
						c-0.144,0.142-0.245,0.319-0.298,0.514c-0.208,0.77-0.651,2.707,0.229,2.535c1.094-0.214,8.629-7.397,8.629-7.397"/>
					<path style="fill:#FFBE8C;" d="M408.205,141.418c-0.006-0.424,0.238-1.049,0.61-1.711l3.845-3.957l-2.857-4.973l-1.454-6.594
						l3.045-3.471c0,0,6.69,0.285,6.859,9.928c0.012,0.665-0.172,1.322-0.517,1.89l-2.952,4.848
						c-0.072,0.087-0.152,0.165-0.242,0.233c-0.892,0.686-5.259,4.655-5.696,4.741C408.596,142.399,408.211,141.806,408.205,141.418
						z"/>
				</g>
				<path style="fill:#FFBE8C;" d="M407.493,127.776l0.531-2.251c0.113-0.479-0.135-0.996-0.604-1.147
					c-0.528-0.169-1.222-0.151-1.778-0.25l-2.891-0.125c-0.37-0.016-0.608-0.407-0.443-0.738c0.318-0.639,1.858-2.032,3.693-2.171
					l5.928-0.67L407.493,127.776z"/>
			</g>
			<path style="fill:#1C2A36;" d="M410.537,130.85c0-0.035-0.013-0.069-0.04-0.096c-0.054-0.055-0.142-0.057-0.196-0.003
				l-5.447,5.294c-0.055,0.053-0.055,0.142-0.003,0.196c0.053,0.055,0.142,0.056,0.196,0.003l5.447-5.295
				C410.523,130.923,410.537,130.887,410.537,130.85z"/>
			<path style="fill:#1C2A36;" d="M411.97,133.133c0-0.035-0.013-0.07-0.04-0.096c-0.054-0.055-0.142-0.056-0.196-0.003l-6.214,6.04
				c-0.056,0.053-0.056,0.143-0.003,0.196c0.054,0.055,0.142,0.057,0.196,0.003l6.214-6.04
				C411.957,133.206,411.971,133.169,411.97,133.133z"/>
			<path style="fill:#1C2A36;" d="M413.443,135.463c0-0.035-0.013-0.07-0.04-0.096c-0.053-0.055-0.142-0.057-0.196-0.003
				l-4.651,4.521c-0.056,0.054-0.056,0.142-0.003,0.196c0.053,0.055,0.142,0.057,0.196,0.003l4.651-4.521
				C413.429,135.536,413.443,135.499,413.443,135.463z"/>
		</g>
		<g>
			<g>
				<path style="fill:#FFBE8C;" d="M361.485,130.857l5.01-2.652c0.403-0.177,0.751-0.455,1.006-0.813
					c0.763-1.068,2.211-3.333,0.94-3.557c-1.67-0.294-8.886,3.232-8.886,3.232"/>
				<path style="fill:#FFBE8C;" d="M361.568,134.497l5.01-2.652c0.403-0.177,0.75-0.455,1.006-0.813
					c0.763-1.068,2.211-3.333,0.94-3.557c-1.67-0.294-7.892,2.555-7.892,2.555"/>
				<path style="fill:#FFBE8C;" d="M361.651,138.137l5.01-2.652c0.403-0.177,0.75-0.455,1.006-0.813
					c0.763-1.068,2.211-3.333,0.94-3.557c-1.67-0.294-7.892,2.555-7.892,2.555"/>
				<path style="fill:#FFBE8C;" d="M363.715,137.111c0,0,3.306-2.65,4.975-2.356c1.271,0.224-0.177,2.489-0.94,3.557
					c-0.256,0.358-0.604,0.636-1.007,0.813l-2.803,1.484c-1.334,0.706-3.002,0.323-3.851-0.925
					c-1.424-2.094-3.237-5.571-3.104-9.563c0.218-6.515,0.548-8.017,0.548-8.017l1.984,3.718
					C360.936,128.723,363.715,137.111,363.715,137.111z"/>
			</g>
			<path style="fill:#1C2A36;" d="M367.196,127.432c-0.033-0.002-0.068,0.006-0.098,0.026l-3.69,2.493
				c-0.072,0.048-0.09,0.145-0.042,0.216c0.047,0.072,0.145,0.091,0.216,0.042l3.69-2.493c0.072-0.048,0.09-0.145,0.042-0.216
				C367.287,127.459,367.242,127.435,367.196,127.432z"/>
			<path style="fill:#1C2A36;" d="M367.515,131.188c-0.033-0.002-0.068,0.007-0.098,0.026l-3.69,2.493
				c-0.072,0.048-0.09,0.145-0.042,0.216c0.047,0.072,0.145,0.091,0.216,0.042l3.69-2.493c0.072-0.048,0.09-0.145,0.042-0.216
				C367.606,131.215,367.561,131.191,367.515,131.188z"/>
			<path style="fill:#1C2A36;" d="M367.59,134.728c-0.033-0.004-0.068,0.004-0.098,0.023l-3.777,2.36
				c-0.073,0.046-0.095,0.142-0.05,0.214c0.044,0.074,0.142,0.096,0.215,0.05l3.776-2.36c0.073-0.046,0.096-0.142,0.05-0.214
				C367.68,134.758,367.636,134.733,367.59,134.728z"/>
		</g>
		<path style="fill:#732CB5;" d="M429.899,76.926c-0.015,0-0.032-0.001-0.047-0.004c-0.165-0.027-0.278-0.182-0.252-0.347
			l2.038-12.724c0.026-0.164,0.186-0.275,0.346-0.251c0.166,0.027,0.278,0.182,0.252,0.347l-2.038,12.724
			C430.174,76.821,430.046,76.926,429.899,76.926z"/>
	</g>
</g>
<g id="DESIGNED_BY_FREEPIK">
	<g>
		<g id="XMLID_319_">
			<g id="XMLID_338_">
				<g id="XMLID_346_">
					<path style="fill:#CCCCCC;" d="M385.104,465.465c-0.432,0.443-0.803,0.931-1.108,1.453l-0.465-0.241
						c-0.067-0.298-0.349-0.503-0.659-0.466c-0.331,0.039-0.568,0.339-0.529,0.67s0.339,0.568,0.67,0.529
						c0.065-0.008,0.127-0.026,0.184-0.052l0.451,0.234c-0.251,0.554-0.433,1.139-0.539,1.744l0.746,0.132
						c0.23-1.306,0.85-2.507,1.792-3.473L385.104,465.465z"/>
				</g>
				<g id="XMLID_345_">
					<path style="fill:#CCCCCC;" d="M390.592,463.163c-0.171,0-0.341,0.006-0.51,0.017l-0.074-0.626
						c0.188-0.149,0.296-0.389,0.266-0.645c-0.046-0.393-0.402-0.674-0.795-0.628s-0.674,0.402-0.628,0.795
						c0.03,0.254,0.189,0.461,0.405,0.564l0.073,0.624c-0.714,0.116-1.403,0.332-2.06,0.646l0.327,0.684
						c0.934-0.447,1.942-0.673,2.995-0.673c0.496,0,0.993,0.053,1.475,0.158l0.161-0.741
						C391.693,463.222,391.142,463.163,390.592,463.163z"/>
				</g>
				<g id="XMLID_344_">
					<path style="fill:#CCCCCC;" d="M397.194,465.711c0.331-0.04,0.566-0.341,0.525-0.672c-0.04-0.331-0.341-0.566-0.672-0.526
						c-0.309,0.038-0.535,0.304-0.53,0.609l-0.416,0.363c-0.418-0.43-0.89-0.813-1.408-1.139l-0.404,0.641
						c1.134,0.715,2.021,1.726,2.563,2.925l0.691-0.313c-0.251-0.554-0.568-1.072-0.942-1.545l0.402-0.351
						C397.065,465.716,397.129,465.719,397.194,465.711z"/>
				</g>
				<g id="XMLID_343_">
					<path style="fill:#CCCCCC;" d="M390.044,473.372c-0.386,0.023-0.775,0.035-1.157,0.035c-0.88,0-1.733-0.061-2.478-0.179
						c-0.39-0.062-0.846-0.155-1.27-0.292c1.046,1.861,3.069,3.125,5.388,3.125c2.855,0,5.262-1.916,5.95-4.504
						c-0.682,0.449-1.505,0.825-2.459,1.123C392.839,473.047,391.464,473.286,390.044,473.372z"/>
				</g>
				<g id="XMLID_339_">
					<path style="fill:#CCCCCC;" d="M390.592,464.68c-3.352,0-6.08,2.666-6.08,5.943c0,0.426,0.046,0.849,0.137,1.261
						c0.674,0.483,2.706,0.89,5.348,0.731c2.879-0.173,5.297-0.957,6.672-2.159c-0.005-0.195-0.021-0.39-0.045-0.582
						C396.244,466.913,393.65,464.68,390.592,464.68z M388.432,471.194c-1.02,0-1.85-0.83-1.85-1.85c0-1.02,0.83-1.85,1.85-1.85
						c1.02,0,1.85,0.83,1.85,1.85C390.282,470.365,389.452,471.194,388.432,471.194z M393.17,470.286c-0.75,0-1.36-0.61-1.36-1.36
						s0.61-1.361,1.36-1.361c0.75,0,1.361,0.61,1.361,1.361S393.92,470.286,393.17,470.286z"/>
				</g>
			</g>
			<g id="XMLID_336_">
				<path style="fill:#CCCCCC;" d="M406.595,466.547c-0.295-0.116-0.806-0.309-1.382-0.237c-0.551,0.069-0.844,0.341-0.844,1.007
					v0.866h2.228v1.717h-2.228v5.455h-1.932v-5.455h-1.34v-1.717h1.34v-0.888c0-1.68,0.896-2.783,2.568-2.783
					c0.642,0,1.157,0.122,1.59,0.308L406.595,466.547z"/>
			</g>
			<g id="XMLID_334_">
				<path style="fill:#CCCCCC;" d="M411.298,469.879c-0.177-0.03-0.358-0.046-0.526-0.046c-0.896,0-1.51,0.548-1.51,1.614v3.908
					h-1.932v-7.172h1.873v0.785c0.451-0.673,1.14-0.977,2.021-0.977c0.414,0,0.848,0.128,1.094,0.337L411.298,469.879z"/>
			</g>
			<g id="XMLID_331_">
				<path style="fill:#CCCCCC;" d="M418.965,471.757c0,0.222-0.015,0.489-0.037,0.651h-5.085c0.207,1.036,0.933,1.488,1.843,1.488
					c0.622,0,1.295-0.252,1.813-0.688l1.132,1.243c-0.814,0.748-1.85,1.088-3.057,1.088c-2.198,0-3.723-1.495-3.723-3.753
					c0-2.258,1.48-3.797,3.627-3.797C417.544,467.99,418.958,469.522,418.965,471.757z M413.851,471.091h3.175
					c-0.177-0.918-0.733-1.436-1.562-1.436C414.554,469.655,414.021,470.203,413.851,471.091z"/>
			</g>
			<g id="XMLID_328_">
				<path style="fill:#CCCCCC;" d="M426.618,471.757c0,0.222-0.015,0.489-0.037,0.651h-5.085c0.207,1.036,0.932,1.488,1.843,1.488
					c0.622,0,1.295-0.252,1.813-0.688l1.132,1.243c-0.814,0.748-1.85,1.088-3.057,1.088c-2.198,0-3.723-1.495-3.723-3.753
					c0-2.258,1.48-3.797,3.627-3.797C425.197,467.99,426.611,469.522,426.618,471.757z M421.504,471.091h3.175
					c-0.178-0.918-0.733-1.436-1.562-1.436C422.207,469.655,421.674,470.203,421.504,471.091z"/>
			</g>
			<g id="XMLID_325_">
				<path style="fill:#CCCCCC;" d="M434.964,471.764c0,2.154-1.495,3.775-3.471,3.775c-0.962,0-1.643-0.378-2.109-0.933v3.708
					h-1.924v-10.133h1.887v0.792c0.466-0.585,1.155-0.984,2.139-0.984C433.469,467.99,434.964,469.61,434.964,471.764z
					 M429.287,471.764c0,1.132,0.747,1.976,1.843,1.976c1.14,0,1.85-0.881,1.85-1.976c0-1.095-0.71-1.976-1.85-1.976
					C430.035,469.788,429.287,470.632,429.287,471.764z"/>
			</g>
			<g id="XMLID_322_">
				<path style="fill:#CCCCCC;" d="M438.068,465.836c0,0.696-0.54,1.229-1.236,1.229c-0.696,0-1.229-0.533-1.229-1.229
					c0-0.696,0.533-1.243,1.229-1.243C437.527,464.592,438.068,465.14,438.068,465.836z M437.809,475.354h-1.932v-7.172h1.932
					V475.354z"/>
			</g>
			<g id="XMLID_320_">
				<path style="fill:#CCCCCC;" d="M441.032,470.736l2.702-2.554h2.368l-3.479,3.375l3.501,3.797h-2.376l-2.716-2.901v2.901H439.1
					v-10.658h1.932V470.736z"/>
			</g>
		</g>
		<g>
			<g>
				<path style="fill:#CCCCCC;" d="M309.412,475.289v-1.055c-0.527,0.718-1.391,1.23-2.387,1.23c-1.846,0-3.149-1.406-3.149-3.706
					c0-2.256,1.289-3.721,3.149-3.721c0.952,0,1.816,0.469,2.387,1.245v-3.765h1.099v9.77H309.412z M309.412,473.37v-3.208
					c-0.395-0.615-1.245-1.143-2.124-1.143c-1.421,0-2.27,1.172-2.27,2.739c0,1.567,0.85,2.724,2.27,2.724
					C308.168,474.483,309.017,473.986,309.412,473.37z"/>
			</g>
			<g>
				<path style="fill:#CCCCCC;" d="M311.932,471.744c0-2.051,1.465-3.706,3.486-3.706c2.139,0,3.398,1.67,3.398,3.794v0.279h-5.727
					c0.088,1.333,1.026,2.446,2.549,2.446c0.805,0,1.626-0.322,2.182-0.894l0.527,0.718c-0.703,0.703-1.655,1.084-2.812,1.084
					C313.44,475.465,311.932,473.956,311.932,471.744z M315.404,468.947c-1.509,0-2.256,1.274-2.315,2.358h4.643
					C317.718,470.25,317.015,468.947,315.404,468.947z"/>
			</g>
			<g>
				<path style="fill:#CCCCCC;" d="M319.607,474.351l0.571-0.791c0.469,0.542,1.362,1.011,2.329,1.011
					c1.084,0,1.67-0.513,1.67-1.216c0-1.714-4.38-0.659-4.38-3.281c0-1.098,0.952-2.036,2.636-2.036
					c1.201,0,2.051,0.454,2.622,1.026l-0.513,0.762c-0.424-0.513-1.201-0.894-2.109-0.894c-0.967,0-1.567,0.483-1.567,1.113
					c0,1.552,4.38,0.527,4.38,3.281c0,1.187-0.952,2.138-2.783,2.138C321.306,475.465,320.325,475.113,319.607,474.351z"/>
			</g>
			<g>
				<path style="fill:#CCCCCC;" d="M326.477,466.471c0-0.41,0.337-0.747,0.732-0.747c0.41,0,0.747,0.337,0.747,0.747
					c0,0.41-0.337,0.732-0.747,0.732C326.814,467.203,326.477,466.881,326.477,466.471z M326.667,475.289v-7.075h1.099v7.075
					H326.667z"/>
			</g>
			<g>
				<path style="fill:#CCCCCC;" d="M329.582,477.105l0.556-0.82c0.586,0.703,1.289,0.967,2.3,0.967c1.172,0,2.27-0.571,2.27-2.124
					v-1.011c-0.513,0.718-1.377,1.26-2.373,1.26c-1.845,0-3.149-1.377-3.149-3.662c0-2.27,1.289-3.677,3.149-3.677
					c0.952,0,1.802,0.469,2.373,1.245v-1.069h1.098v6.87c0,2.344-1.641,3.076-3.369,3.076
					C331.237,478.16,330.417,477.926,329.582,477.105z M334.709,473.253v-3.091c-0.381-0.615-1.231-1.143-2.109-1.143
					c-1.421,0-2.27,1.128-2.27,2.695c0,1.553,0.849,2.695,2.27,2.695C333.478,474.41,334.328,473.868,334.709,473.253z"/>
			</g>
			<g>
				<path style="fill:#CCCCCC;" d="M342.413,475.289v-4.629c0-1.245-0.63-1.641-1.582-1.641c-0.865,0-1.685,0.527-2.095,1.099v5.17
					h-1.099v-7.075h1.099v1.025c0.498-0.586,1.465-1.201,2.519-1.201c1.48,0,2.256,0.747,2.256,2.285v4.966H342.413z"/>
			</g>
			<g>
				<path style="fill:#CCCCCC;" d="M344.932,471.744c0-2.051,1.465-3.706,3.486-3.706c2.138,0,3.398,1.67,3.398,3.794v0.279h-5.727
					c0.088,1.333,1.025,2.446,2.549,2.446c0.806,0,1.626-0.322,2.183-0.894l0.527,0.718c-0.703,0.703-1.655,1.084-2.812,1.084
					C346.441,475.465,344.932,473.956,344.932,471.744z M348.404,468.947c-1.509,0-2.256,1.274-2.314,2.358h4.643
					C350.718,470.25,350.015,468.947,348.404,468.947z"/>
			</g>
			<g>
				<path style="fill:#CCCCCC;" d="M358.35,475.289v-1.055c-0.527,0.718-1.392,1.23-2.388,1.23c-1.845,0-3.149-1.406-3.149-3.706
					c0-2.256,1.289-3.721,3.149-3.721c0.952,0,1.817,0.469,2.388,1.245v-3.765h1.098v9.77H358.35z M358.35,473.37v-3.208
					c-0.396-0.615-1.245-1.143-2.124-1.143c-1.421,0-2.27,1.172-2.27,2.739c0,1.567,0.849,2.724,2.27,2.724
					C357.105,474.483,357.954,473.986,358.35,473.37z"/>
			</g>
			<g>
				<path style="fill:#CCCCCC;" d="M364.692,475.289v-9.77h1.099v3.765c0.572-0.776,1.421-1.245,2.388-1.245
					c1.845,0,3.149,1.465,3.149,3.721c0,2.299-1.304,3.706-3.149,3.706c-0.996,0-1.86-0.513-2.388-1.23v1.055H364.692z
					 M367.9,474.483c1.436,0,2.286-1.157,2.286-2.724c0-1.568-0.85-2.739-2.286-2.739c-0.864,0-1.728,0.527-2.109,1.143v3.208
					C366.172,473.986,367.036,474.483,367.9,474.483z"/>
			</g>
			<g>
				<path style="fill:#CCCCCC;" d="M372.529,477.061c0.161,0.073,0.425,0.117,0.601,0.117c0.483,0,0.806-0.161,1.055-0.747
					l0.469-1.069l-2.959-7.148h1.187l2.358,5.8l2.344-5.8h1.201l-3.545,8.51c-0.425,1.025-1.143,1.421-2.08,1.435
					c-0.234,0-0.601-0.044-0.806-0.103L372.529,477.061z"/>
			</g>
		</g>
	</g>
</g>
</svg>
